<svg width="39" height="37" viewBox="0 0 39 37" fill="none" xmlns="http://www.w3.org/2000/svg">
<mask id="mask0_151_77" style="mask-type:luminance" maskUnits="userSpaceOnUse" x="14" y="0" width="25" height="36">
<path d="M14.9436 0.410522H39V35.7705H14.9436V0.410522Z" fill="white"/>
</mask>
<g mask="url(#mask0_151_77)">
<path d="M37.381 14.2478L24.854 1.72075C21.4911 -1.64471 12.5271 2.25828 15.5949 5.32569L24.6034 14.3372C24.7291 14.4629 24.8484 14.5942 24.9613 14.7314C25.0742 14.8691 25.1803 15.0115 25.279 15.1595C25.3778 15.3075 25.4693 15.4597 25.5531 15.6162C25.637 15.7732 25.7131 15.9339 25.7811 16.0982C25.8491 16.2624 25.9089 16.4296 25.9607 16.5998C26.0124 16.77 26.0556 16.9423 26.0903 17.1168C26.1249 17.2908 26.151 17.4666 26.1685 17.6436C26.186 17.8207 26.1946 17.9981 26.1946 18.176C26.1946 18.3539 26.186 18.5309 26.1685 18.708C26.151 18.885 26.1249 19.0608 26.0903 19.2353C26.0556 19.4097 26.0124 19.5821 25.9607 19.7518C25.9089 19.922 25.8491 20.0892 25.7811 20.2539C25.7131 20.4181 25.637 20.5784 25.5531 20.7354C25.4693 20.8919 25.3778 21.0446 25.279 21.1921C25.1803 21.3401 25.0742 21.4829 24.9613 21.6202C24.8484 21.7574 24.7291 21.8891 24.6034 22.0149L15.6004 31.0204C12.8555 33.7623 21.5244 37.8073 24.854 34.4778L37.381 21.9507C37.5076 21.825 37.6277 21.6929 37.7411 21.5552C37.8548 21.4175 37.9613 21.2746 38.0609 21.1262C38.1602 20.9783 38.2521 20.8252 38.3368 20.6683C38.421 20.5109 38.4976 20.3497 38.5664 20.185C38.6348 20.02 38.6951 19.8523 38.7469 19.6813C38.799 19.5107 38.8427 19.3379 38.8773 19.1626C38.9124 18.9877 38.9389 18.8115 38.9564 18.6336C38.9739 18.4561 38.9825 18.2778 38.9825 18.0995C38.9825 17.9207 38.9739 17.7428 38.9564 17.5649C38.9389 17.3875 38.9124 17.2108 38.8773 17.0359C38.8427 16.861 38.799 16.6879 38.7469 16.5172C38.6951 16.3462 38.6348 16.1785 38.5664 16.0139C38.4976 15.8488 38.421 15.6876 38.3368 15.5307C38.2521 15.3733 38.1602 15.2207 38.0609 15.0723C37.9613 14.9239 37.8548 14.781 37.7411 14.6434C37.6277 14.5057 37.5076 14.3739 37.381 14.2478Z" fill="url(#paint0_linear_151_77)"/>
</g>
<mask id="mask1_151_77" style="mask-type:luminance" maskUnits="userSpaceOnUse" x="14" y="0" width="25" height="28">
<path d="M14.9436 0.410522H39V27.0126H14.9436V0.410522Z" fill="white"/>
</mask>
<g mask="url(#mask1_151_77)">
<path d="M37.381 14.2478L24.854 1.72075C21.4911 -1.64471 12.5271 2.25828 15.5949 5.32569L24.6034 14.3372C24.8193 14.5527 25.0156 14.7849 25.1918 15.0338C25.3684 15.2822 25.5232 15.5444 25.6553 15.8193C25.7875 16.0943 25.8957 16.3783 25.9799 16.6716C26.0642 16.9645 26.1228 17.263 26.1565 17.5662C29.2607 21.2101 31.841 24.7483 32.3786 26.9532L37.3891 21.9422C37.5153 21.8164 37.635 21.6843 37.7483 21.5466C37.8612 21.4089 37.9673 21.2661 38.0665 21.1177C38.1657 20.9697 38.2572 20.8166 38.341 20.6597C38.4253 20.5023 38.5014 20.3415 38.5694 20.1769C38.6378 20.0118 38.6977 19.8442 38.7494 19.6736C38.8012 19.503 38.8444 19.3302 38.879 19.1553C38.9136 18.9804 38.9397 18.8042 38.9568 18.6272C38.9744 18.4497 38.9829 18.2718 38.9825 18.0935C38.9825 17.9152 38.9735 17.7373 38.9555 17.5598C38.938 17.3823 38.9115 17.2066 38.8764 17.0317C38.8414 16.8568 38.7982 16.684 38.746 16.5138C38.6938 16.3432 38.6335 16.1756 38.5651 16.0109C38.4967 15.8463 38.4202 15.6855 38.3355 15.5285C38.2512 15.3716 38.1593 15.2189 38.0601 15.071C37.9604 14.923 37.854 14.7802 37.7406 14.6429C37.6273 14.5052 37.5072 14.3735 37.381 14.2478Z" fill="url(#paint1_linear_151_77)"/>
</g>
<mask id="mask2_151_77" style="mask-type:luminance" maskUnits="userSpaceOnUse" x="31" y="0" width="8" height="8">
<path d="M31.7747 0H38.9721V7.21243H31.7747V0Z" fill="white"/>
</mask>
<g mask="url(#mask2_151_77)">
<path d="M38.9451 3.59036C38.9451 3.70667 38.9396 3.82256 38.928 3.93845C38.9169 4.05391 38.8998 4.16894 38.8771 4.28269C38.8545 4.39687 38.8262 4.50934 38.7925 4.62052C38.7587 4.73171 38.7193 4.84118 38.6749 4.94852C38.6304 5.05585 38.5808 5.16105 38.526 5.26368C38.4713 5.36588 38.4114 5.46552 38.3469 5.56217C38.2823 5.65881 38.2134 5.75204 38.1395 5.84184C38.0659 5.93207 37.9877 6.01802 37.9055 6.10013C37.8234 6.18223 37.7375 6.26006 37.6477 6.33404C37.5579 6.4076 37.4647 6.47687 37.3676 6.54144C37.2709 6.60602 37.1717 6.66588 37.0691 6.72062C36.9665 6.77536 36.8617 6.82496 36.7544 6.86944C36.6466 6.91391 36.5376 6.95325 36.4264 6.98704C36.3148 7.02039 36.2023 7.04861 36.0885 7.07128C35.9744 7.09394 35.8593 7.11105 35.7439 7.12259C35.628 7.13414 35.5121 7.1397 35.3958 7.1397C35.2795 7.1397 35.1636 7.13414 35.0481 7.12259C34.9322 7.11105 34.8176 7.09437 34.7034 7.07128C34.5893 7.04861 34.4768 7.02039 34.3656 6.98704C34.2544 6.95325 34.145 6.91391 34.0376 6.86944C33.9303 6.82496 33.8251 6.77536 33.7229 6.72062C33.6203 6.66588 33.5206 6.60602 33.424 6.54144C33.3273 6.47687 33.2341 6.4076 33.1443 6.33404C33.0545 6.26006 32.9685 6.18223 32.886 6.10013C32.8039 6.01802 32.7261 5.93207 32.6521 5.84184C32.5785 5.75204 32.5093 5.65881 32.4447 5.56217C32.3801 5.46552 32.3203 5.36588 32.2655 5.26368C32.2108 5.16105 32.1612 5.05585 32.1167 4.94852C32.0722 4.84118 32.0333 4.73171 31.9995 4.62052C31.9657 4.50934 31.9375 4.39687 31.9149 4.28269C31.8922 4.16894 31.8751 4.05391 31.8635 3.93845C31.8524 3.82256 31.8464 3.70667 31.8464 3.59036C31.8464 3.47404 31.8524 3.35815 31.8635 3.24227C31.8751 3.12681 31.8922 3.01177 31.9149 2.89802C31.9375 2.78384 31.9657 2.67138 31.9995 2.56019C32.0333 2.44858 32.0722 2.33954 32.1167 2.2322C32.1612 2.12486 32.2108 2.01967 32.2655 1.91704C32.3203 1.81483 32.3801 1.71519 32.4447 1.61855C32.5093 1.5219 32.5785 1.42868 32.6521 1.33888C32.7261 1.24865 32.8039 1.16269 32.886 1.08059C32.9685 0.998483 33.0545 0.920226 33.1443 0.846674C33.2341 0.773121 33.3273 0.703845 33.424 0.639272C33.5206 0.5747 33.6203 0.514831 33.7229 0.460095C33.8251 0.405358 33.9303 0.355752 34.0376 0.311279C34.145 0.266805 34.2544 0.227463 34.3656 0.19368C34.4768 0.159897 34.5893 0.132101 34.7034 0.109009C34.8176 0.0863446 34.9322 0.0696669 35.0481 0.0581209C35.1636 0.0465748 35.2795 0.0410156 35.3958 0.0410156C35.5121 0.0410156 35.628 0.0465748 35.7439 0.0581209C35.8593 0.0696669 35.9744 0.0863446 36.0885 0.109009C36.2023 0.132101 36.3148 0.159897 36.4264 0.19368C36.5376 0.227463 36.6466 0.266805 36.7544 0.311279C36.8617 0.355752 36.9665 0.405358 37.0691 0.460095C37.1717 0.514831 37.2709 0.5747 37.3676 0.639272C37.4647 0.703845 37.5579 0.773121 37.6477 0.846674C37.7375 0.920226 37.8234 0.998483 37.9055 1.08059C37.9877 1.16269 38.0659 1.24865 38.1395 1.33888C38.2134 1.42868 38.2823 1.5219 38.3469 1.61855C38.4114 1.71519 38.4713 1.81483 38.526 1.91704C38.5808 2.01967 38.6304 2.12486 38.6749 2.2322C38.7193 2.33954 38.7587 2.44858 38.7925 2.56019C38.8262 2.67138 38.8545 2.78384 38.8771 2.89802C38.8998 3.01177 38.9169 3.12681 38.928 3.24227C38.9396 3.35815 38.9451 3.47404 38.9451 3.59036Z" fill="#F37022"/>
<path d="M38.9451 3.59036C38.9451 3.70667 38.9396 3.82256 38.928 3.93845C38.9169 4.05391 38.8998 4.16894 38.8771 4.28269C38.8545 4.39687 38.8262 4.50934 38.7925 4.62052C38.7587 4.73171 38.7193 4.84118 38.6749 4.94852C38.6304 5.05585 38.5808 5.16105 38.526 5.26368C38.4713 5.36588 38.4114 5.46552 38.3469 5.56217C38.2823 5.65881 38.2134 5.75204 38.1395 5.84184C38.0659 5.93207 37.9877 6.01802 37.9055 6.10013C37.8234 6.18223 37.7375 6.26006 37.6477 6.33404C37.5579 6.4076 37.4647 6.47687 37.3676 6.54144C37.2709 6.60602 37.1717 6.66588 37.0691 6.72062C36.9665 6.77536 36.8617 6.82496 36.7544 6.86944C36.6466 6.91391 36.5376 6.95325 36.4264 6.98704C36.3148 7.02039 36.2023 7.04861 36.0885 7.07128C35.9744 7.09394 35.8593 7.11105 35.7439 7.12259C35.628 7.13414 35.5121 7.1397 35.3958 7.1397C35.2795 7.1397 35.1636 7.13414 35.0481 7.12259C34.9322 7.11105 34.8176 7.09437 34.7034 7.07128C34.5893 7.04861 34.4768 7.02039 34.3656 6.98704C34.2544 6.95325 34.145 6.91391 34.0376 6.86944C33.9303 6.82496 33.8251 6.77536 33.7229 6.72062C33.6203 6.66588 33.5206 6.60602 33.424 6.54144C33.3273 6.47687 33.2341 6.4076 33.1443 6.33404C33.0545 6.26006 32.9685 6.18223 32.886 6.10013C32.8039 6.01802 32.7261 5.93207 32.6521 5.84184C32.5785 5.75204 32.5093 5.65881 32.4447 5.56217C32.3801 5.46552 32.3203 5.36588 32.2655 5.26368C32.2108 5.16105 32.1612 5.05585 32.1167 4.94852C32.0722 4.84118 32.0333 4.73171 31.9995 4.62052C31.9657 4.50934 31.9375 4.39687 31.9149 4.28269C31.8922 4.16894 31.8751 4.05391 31.8635 3.93845C31.8524 3.82256 31.8464 3.70667 31.8464 3.59036C31.8464 3.47404 31.8524 3.35815 31.8635 3.24227C31.8751 3.12681 31.8922 3.01177 31.9149 2.89802C31.9375 2.78384 31.9657 2.67138 31.9995 2.56019C32.0333 2.44858 32.0722 2.33954 32.1167 2.2322C32.1612 2.12486 32.2108 2.01967 32.2655 1.91704C32.3203 1.81483 32.3801 1.71519 32.4447 1.61855C32.5093 1.5219 32.5785 1.42868 32.6521 1.33888C32.7261 1.24865 32.8039 1.16269 32.886 1.08059C32.9685 0.998483 33.0545 0.920226 33.1443 0.846674C33.2341 0.773121 33.3273 0.703845 33.424 0.639272C33.5206 0.5747 33.6203 0.514831 33.7229 0.460095C33.8251 0.405358 33.9303 0.355752 34.0376 0.311279C34.145 0.266805 34.2544 0.227463 34.3656 0.19368C34.4768 0.159897 34.5893 0.132101 34.7034 0.109009C34.8176 0.0863446 34.9322 0.0696669 35.0481 0.0581209C35.1636 0.0465748 35.2795 0.0410156 35.3958 0.0410156C35.5121 0.0410156 35.628 0.0465748 35.7439 0.0581209C35.8593 0.0696669 35.9744 0.0863446 36.0885 0.109009C36.2023 0.132101 36.3148 0.159897 36.4264 0.19368C36.5376 0.227463 36.6466 0.266805 36.7544 0.311279C36.8617 0.355752 36.9665 0.405358 37.0691 0.460095C37.1717 0.514831 37.2709 0.5747 37.3676 0.639272C37.4647 0.703845 37.5579 0.773121 37.6477 0.846674C37.7375 0.920226 37.8234 0.998483 37.9055 1.08059C37.9877 1.16269 38.0659 1.24865 38.1395 1.33888C38.2134 1.42868 38.2823 1.5219 38.3469 1.61855C38.4114 1.71519 38.4713 1.81483 38.526 1.91704C38.5808 2.01967 38.6304 2.12486 38.6749 2.2322C38.7193 2.33954 38.7587 2.44858 38.7925 2.56019C38.8262 2.67138 38.8545 2.78384 38.8771 2.89802C38.8998 3.01177 38.9169 3.12681 38.928 3.24227C38.9396 3.35815 38.9451 3.47404 38.9451 3.59036Z" fill="url(#paint2_linear_151_77)"/>
</g>
<mask id="mask3_151_77" style="mask-type:luminance" maskUnits="userSpaceOnUse" x="0" y="0" width="24" height="37">
<path d="M0 0.0819092H23.4825V36.0842H0V0.0819092Z" fill="white"/>
</mask>
<g mask="url(#mask3_151_77)">
<path d="M9.2702 1.6905L21.7972 14.2175C21.923 14.3433 22.0423 14.475 22.1552 14.6122C22.2681 14.7499 22.3737 14.8923 22.4725 15.0403C22.5713 15.1883 22.6628 15.3405 22.7466 15.4974C22.8304 15.6544 22.9065 15.8152 22.9745 15.9794C23.0425 16.1436 23.1024 16.3108 23.1541 16.481C23.2054 16.6512 23.2486 16.8235 23.2833 16.998C23.3183 17.1725 23.344 17.3482 23.3615 17.5253C23.379 17.7023 23.3876 17.8798 23.3876 18.0577C23.3876 18.2356 23.379 18.413 23.3615 18.5901C23.344 18.7671 23.3183 18.9429 23.2833 19.1173C23.2486 19.2918 23.2054 19.4641 23.1541 19.6343C23.1024 19.8045 23.0425 19.9717 22.9745 20.136C22.9065 20.3002 22.8304 20.461 22.7466 20.6179C22.6628 20.7748 22.5713 20.9271 22.4725 21.075C22.3737 21.223 22.2681 21.3654 22.1552 21.5031C22.0423 21.6404 21.923 21.7721 21.7972 21.8978L9.2702 34.4248C5.84872 37.8463 -0.002565 35.4216 8.43578e-07 30.5804V5.52635C-0.002565 0.693687 5.84872 -1.73098 9.2702 1.6905Z" fill="url(#paint3_linear_151_77)"/>
</g>
<mask id="mask4_151_77" style="mask-type:luminance" maskUnits="userSpaceOnUse" x="0" y="0" width="24" height="28">
<path d="M0 0.0819092H23.4825V27.2314H0V0.0819092Z" fill="white"/>
</mask>
<g mask="url(#mask4_151_77)">
<path d="M9.27013 1.6902C5.86832 -1.71161 0.083752 0.665591 0.00292969 5.44523C0.00292969 5.44523 19.715 24.0968 16.5805 27.1368L21.8083 21.9086C21.934 21.7829 22.0533 21.6512 22.1662 21.5139C22.2791 21.3762 22.3847 21.2338 22.4835 21.0859C22.5823 20.9379 22.6738 20.7857 22.7576 20.6287C22.8415 20.4718 22.9176 20.311 22.9856 20.1468C23.0536 19.9826 23.1134 19.8154 23.1652 19.6452C23.2165 19.475 23.2597 19.3026 23.2943 19.1282C23.3294 18.9537 23.355 18.7779 23.3726 18.6009C23.3901 18.4238 23.3987 18.2464 23.3987 18.0685C23.3987 17.8906 23.3901 17.7131 23.3726 17.5361C23.355 17.359 23.3294 17.1833 23.2943 17.0088C23.2597 16.8343 23.2165 16.662 23.1652 16.4918C23.1134 16.3216 23.0536 16.1544 22.9856 15.9902C22.9176 15.826 22.8415 15.6652 22.7576 15.5083C22.6738 15.3513 22.5823 15.1991 22.4835 15.0511C22.3847 14.9032 22.2791 14.7608 22.1662 14.6231C22.0533 14.4858 21.934 14.3541 21.8083 14.2284L9.27013 1.6902Z" fill="url(#paint4_linear_151_77)"/>
</g>
<defs>
<linearGradient id="paint0_linear_151_77" x1="26.9739" y1="0.424683" x2="26.9739" y2="35.7327" gradientUnits="userSpaceOnUse">
<stop stop-color="#8FF8B7"/>
<stop offset="1" stop-color="#006E2A"/>
</linearGradient>
<linearGradient id="paint1_linear_151_77" x1="26.9739" y1="0.424683" x2="26.9739" y2="26.9532" gradientUnits="userSpaceOnUse">
<stop stop-color="#6DFF6D"/>
<stop offset="1" stop-color="#08BE4C"/>
</linearGradient>
<linearGradient id="paint2_linear_151_77" x1="35.3958" y1="0.0410156" x2="35.3958" y2="7.1397" gradientUnits="userSpaceOnUse">
<stop stop-color="#F37022"/>
<stop offset="1" stop-color="#FF9759"/>
</linearGradient>
<linearGradient id="paint3_linear_151_77" x1="11.6938" y1="0.0889893" x2="11.6938" y2="36.0261" gradientUnits="userSpaceOnUse">
<stop stop-color="#CAE9FF"/>
<stop offset="1" stop-color="#0076CD"/>
</linearGradient>
<linearGradient id="paint4_linear_151_77" x1="11.7008" y1="0.0887451" x2="11.7008" y2="27.1368" gradientUnits="userSpaceOnUse">
<stop stop-color="#D5F6FF"/>
<stop offset="1" stop-color="#2DD1FF"/>
</linearGradient>
</defs>
</svg>
